PathFileType	4	(X/Y/Z)	Patient4_TMGait_0pt2_02_left_22.trc.trc
DataRate	CameraRate	NumFrames	NumMarkers	Units	OrigDataRate	OrigDataStartFrame	OrigNumFrames
45.901639344262	45.901639344262	4	33	mm	45.901639344262	1	       141
Frame#	Time	R.Midfoot.Superior			Sacral			L.Shoulder			Chest			R.Shoulder			Neck			R.ASIS			L.ASIS			R.Thigh.Superior			R.Thigh.Lateral			R.Thigh.Inferior			R.Patella			L.Thigh.Superior			L.Thigh.Lateral			L.Thigh.Inferior			L.Patella			L.Shank.Superior			L.Shank.Lateral			L.Shank.Inferior			R.Shank.Superior			R.Shank.Lateral			R.Shank.Inferior			R.Heel			R.Midfoot.Lateral			R.Toe			L.Heel			L.Midfoot.Lateral			L.Midfoot.Superior			L.Toe			L.Elbow			L.Wrist			R.Elbow			R.Wrist			
		X1	Y1	Z1	X2	Y2	Z2	X3	Y3	Z3	X4	Y4	Z4	X5	Y5	Z5	X6	Y6	Z6	X7	Y7	Z7	X8	Y8	Z8	X9	Y9	Z9	X10	Y10	Z10	X11	Y11	Z11	X12	Y12	Z12	X13	Y13	Z13	X14	Y14	Z14	X15	Y15	Z15	X16	Y16	Z16	X17	Y17	Z17	X18	Y18	Z18	X19	Y19	Z19	X20	Y20	Z20	X21	Y21	Z21	X22	Y22	Z22	X23	Y23	Z23	X24	Y24	Z24	X25	Y25	Z25	X26	Y26	Z26	X27	Y27	Z27	X28	Y28	Z28	X29	Y29	Z29	X30	Y30	Z30	X31	Y31	Z31	X32	Y32	Z32	X33	Y33	Z33	

1	49.630000000000	1214.512327136688	96.986929286649	612.836568227362	992.437121630720	1000.329912916795	571.142422154512	1169.935459110702	1422.489614247307	372.990927806562	1268.212631730511	1361.026410572371	538.511536308576	1181.206340588865	1440.170112008744	707.636846694944	1146.124742533229	1491.415408295466	526.997053799796	1223.713962325720	938.549751332904	686.066217385540	1209.650305979714	958.867755228823	411.264287289650	1271.177924676898	740.019846479596	642.562957013626	1195.721372941861	623.497843397412	697.836256946174	1270.319105226442	578.035753724357	612.000781370979	1272.987185329585	485.825162111354	613.908148186717	1269.422405338909	752.058048346135	432.862208124611	1200.221136441532	634.415235279227	352.018182193992	1293.440137703135	555.996168206145	409.971567243353	1293.109770843227	470.146028122055	399.927536325942	1226.504480594126	410.870511137212	386.860382926464	1089.371374067797	369.383985997583	327.491806727402	1075.317123043801	236.472636122467	373.331671627313	1235.341086121531	398.189297518317	617.506282367650	1159.122403749157	297.206859874782	677.906214844638	1189.528214550298	203.011895070013	608.596562638659	1042.092924570071	44.861126047062	577.288911461185	1125.771827386086	37.509988856163	651.208266408299	1334.014932500687	43.622062029625	641.095378166418	884.791779148317	171.448300014919	401.358622929620	943.179250515032	122.621025541797	323.339739068646	1047.839467113896	129.323110952291	345.170341586561	1125.816523970829	32.435349189038	322.524250786469	1194.477171716484	1062.227719842050	272.881335403234	1316.665849480794	830.805041267142	288.026226379882	1194.308691119797	1094.887730202161	849.423112105145	1359.564414899795	890.193749492396	862.329338275304	
2	49.651785714286	1210.209813514216	96.881559767070	612.821360739608	990.853353146679	997.909728081061	575.863025945875	1165.690331810300	1419.822610924808	374.983642215474	1266.916341361969	1358.280686964812	538.703866878848	1183.569510762644	1437.616825858713	709.470430353765	1145.105066239963	1489.057984692601	529.352467456104	1223.911909686316	936.518972739505	687.945312463618	1205.129195270765	956.310716126369	413.756073673511	1272.430180419207	738.686500008696	643.558321498405	1198.323273552480	621.408559276044	698.710715217671	1272.689853262814	576.815319001737	612.043525800636	1275.856924601991	483.817145732295	613.716505439275	1271.744930054159	755.632421055947	436.256077038799	1207.948947680898	635.934078386999	354.832109309171	1304.206059033837	561.168034971156	413.487667451264	1306.391027166306	474.138576540240	402.549336109468	1238.653955947432	413.939681835687	389.228918821803	1099.924246679362	375.575930232964	331.216066398795	1083.907883090721	242.606925781857	376.354726370710	1236.832275865522	396.218866416322	617.497011562231	1159.092915586650	296.291387303755	678.004056295826	1187.392932824198	201.890625716938	608.461114099383	1037.764622605509	44.946768703185	577.355666649240	1121.420143590115	37.524136566787	651.277908058817	1329.698840333550	43.376429922906	641.177106204440	892.572098579017	182.720530788683	405.646851366285	948.811043606321	133.368506718972	326.423555853203	1053.783926357289	136.117727871803	347.621432719355	1127.474353413667	33.181550422146	322.137294115126	1174.516291807127	1058.956487670571	277.680588484665	1273.702210702577	820.922592502288	291.907506358347	1211.257422532236	1094.410275824850	851.005830739872	1389.594970043872	903.836401460589	858.651872152298	
3	49.673571428571	1205.732226562515	96.762185320279	612.783886757348	989.162142171443	995.421131127198	580.649326288970	1161.302637168252	1417.132671356712	377.056864905906	1265.571809734042	1355.408006756709	538.850341532411	1186.051866637883	1434.928201415557	711.296050312095	1144.069261731543	1486.628112247784	531.772576833174	1224.039120633854	934.377796368588	689.733762434275	1200.491721449978	953.740012303065	416.161016055348	1273.606759523642	737.272925249626	644.462872767139	1200.887409213697	619.236575636707	699.496549745939	1275.026457955477	575.525522904745	611.982193415389	1278.698581375262	481.734490764528	613.402148002170	1273.845284274406	759.229138067298	439.534957687158	1215.601717431136	637.580762333552	357.512915664133	1314.742063057592	566.449647896166	416.861065114646	1319.520677767361	478.319451934334	405.018451128089	1250.821393521509	417.081316078665	391.481001778307	1110.517792546528	381.356765102174	334.940361842653	1093.004337899885	248.212573207087	379.364497726397	1238.234449569536	394.165380325477	617.348566075120	1159.001382093793	295.338680885484	678.036583011668	1185.142963741998	200.722109884134	608.279350274402	1033.273771660910	45.029114684947	577.420944636303	1116.907833539498	37.536423333417	651.351042799601	1325.219760884506	43.128770352022	641.257701133314	900.972989810149	192.393137203063	410.052659730240	955.309597645202	142.959409600473	329.550056488770	1060.627895982259	142.423092507799	350.059308994096	1130.756433752138	34.186101770488	321.590211334298	1153.698266754655	1056.087778037235	282.378118260325	1229.942837310912	811.908203225089	295.940013983198	1228.857704504180	1094.155308269087	852.457146933235	1420.377235177383	918.775270190605	854.442441478477	
4	49.695357142857	1201.166255202338	96.629829817934	612.720617161500	987.394051297172	992.986913407149	585.354294779309	1156.862763918961	1414.563367349251	379.163965316911	1264.206100546218	1352.518679095224	538.909552650457	1188.623966693645	1432.205520655611	713.028267160757	1143.048747823740	1484.235491651704	534.184316086026	1224.066506799781	932.200641767367	691.305347555333	1195.847879133354	951.297104773285	418.335781783796	1274.596774013005	735.820672959503	645.198938747339	1203.240315287882	617.065628258094	700.132258939684	1277.147878619344	574.201391380497	611.780855617270	1281.300992095230	479.652485266959	612.936065801910	1275.499098061292	762.720415637630	442.500392754466	1222.705388061529	639.327705776090	359.893011144666	1324.438123429861	571.657712230334	419.879488342239	1331.815350591258	482.604482670525	407.164654129345	1262.471155501114	420.210027730243	393.459774466887	1120.760517039361	386.267886823557	338.467324626774	1102.548924791045	252.817446853570	382.175215057499	1239.389214599777	392.105291240144	617.032518914097	1158.764981689685	294.383434553102	677.985885462299	1182.777794345967	199.548245232695	608.046869783465	1028.710327629626	45.104410208961	577.484256716086	1112.327345974953	37.545299430374	651.426807528843	1320.668088411191	42.888972668912	641.334252602135	910.116985948658	199.337354748052	414.352461214080	962.973848778719	150.456317260981	332.532129391234	1068.633473331674	147.738045155824	352.316401872241	1136.372344919515	35.486011203438	320.806812332833	1132.484493028196	1053.954057523460	286.789261254377	1186.759054576241	804.498338776320	300.064779552686	1246.718622939309	1094.300949866525	853.636562794413	1450.984420222259	935.088092065786	849.602539309048	
